<?xml version="1.0" standalone="no"?>
<!DOCTYPE svg PUBLIC "-//W3C//DTD SVG 20010904//EN"
 "http://www.w3.org/TR/2001/REC-SVG-20010904/DTD/svg10.dtd">
<svg version="1.0" xmlns="http://www.w3.org/2000/svg"
 width="48.000000pt" height="48.000000pt" viewBox="0 0 48.000000 48.000000"
 preserveAspectRatio="xMidYMid meet">

<g transform="translate(0.000000,48.000000) scale(0.100000,-0.100000)"
fill="#000000" stroke="none">
<path d="M72 440 c-12 -5 -27 -21 -32 -35 -15 -40 -8 -341 8 -357 10 -10 57
-12 195 -11 158 2 184 5 195 20 15 21 17 281 1 336 -7 26 -18 41 -35 47 -32
13 -301 12 -332 0z m339 -19 c23 -18 24 -25 27 -178 3 -119 0 -162 -10 -175
-11 -14 -40 -18 -179 -24 -221 -9 -208 -22 -205 200 2 92 7 171 12 175 16 16
46 19 190 20 126 1 144 -1 165 -18z"/>
<path d="M120 360 c-21 -39 -2 -74 89 -164 80 -80 91 -87 122 -84 30 3 34 7
37 36 3 29 -6 43 -78 120 -88 93 -91 96 -132 106 -21 5 -30 2 -38 -14z"/>
<path d="M270 361 c0 -6 13 -18 29 -27 16 -9 38 -33 49 -53 l21 -36 10 28 c14
37 14 70 -1 85 -14 14 -108 16 -108 3z"/>
<path d="M104 206 c-3 -8 -4 -31 -2 -52 3 -34 7 -39 37 -47 40 -10 81 -2 81
16 0 7 -16 21 -35 30 -20 9 -40 28 -45 42 -10 27 -28 33 -36 11z"/>
</g>
</svg>
